<mxfile host="app.diagrams.net" modified="2023-09-25T08:59:18.055Z" agent="Mozilla/5.0 (Windows NT 10.0; Win64; x64) AppleWebKit/537.36 (KHTML, like Gecko) Chrome/116.0.0.0 Safari/537.36 OPR/102.0.0.0" etag="_Vik7pIwo4UGIwke2DN-" version="21.7.5" type="github">
  <diagram name="Page-1" id="aMfT-5x0kDcu-MV4AwlF">
    <mxGraphModel dx="777" dy="494" grid="1" gridSize="10" guides="1" tooltips="1" connect="1" arrows="1" fold="1" page="1" pageScale="1" pageWidth="850" pageHeight="1100" math="0" shadow="0">
      <root>
        <mxCell id="0" />
        <mxCell id="1" parent="0" />
        <mxCell id="23IZQoE25pc3qO4HHsNv-2" value="SANPHAM" style="swimlane;whiteSpace=wrap;html=1;" vertex="1" parent="1">
          <mxGeometry x="320" y="80" width="200" height="120" as="geometry" />
        </mxCell>
        <mxCell id="23IZQoE25pc3qO4HHsNv-4" value="ten&lt;br&gt;hinh anh&lt;br&gt;mo ta&lt;br&gt;so luong" style="rounded=0;whiteSpace=wrap;html=1;" vertex="1" parent="23IZQoE25pc3qO4HHsNv-2">
          <mxGeometry x="40" y="40" width="120" height="60" as="geometry" />
        </mxCell>
      </root>
    </mxGraphModel>
  </diagram>
</mxfile>
